<?xml version="1.0" encoding="iso-8859-1"?>
<!-- Generator: Adobe Illustrator 19.0.0, SVG Export Plug-In . SVG Version: 6.00 Build 0)  -->
<svg version="1.1" id="Capa_1" xmlns="http://www.w3.org/2000/svg" xmlns:xlink="http://www.w3.org/1999/xlink" x="0px" y="0px"
	 viewBox="0 0 511.996 511.996" style="enable-background:new 0 0 511.996 511.996;" xml:space="preserve">
<g>
	<g>
		<g>
			<path d="M268.788,275.977c-5.188-2.917-11.646-0.958-14.49,4.188c-10.677,19.396-19.385,39.542-25.875,59.875
				c-1.781,5.625,1.313,11.625,6.927,13.417c1.073,0.333,2.167,0.5,3.24,0.5c4.521,0,8.719-2.896,10.167-7.417
				c6.063-19.042,14.219-37.896,24.229-56.083C275.829,285.29,273.944,278.811,268.788,275.977z"/>
			<path d="M334.569,178.727c-16.135,15.083-30.958,31.063-44.052,47.479c-3.677,4.604-2.927,11.313,1.677,14.979
				c1.969,1.563,4.313,2.333,6.646,2.333c3.135,0,6.24-1.375,8.344-4.021c12.458-15.604,26.573-30.813,41.948-45.188
				c4.302-4.021,4.531-10.771,0.51-15.083C345.621,174.956,338.871,174.727,334.569,178.727z"/>
			<path d="M226.704,394.769c-0.938-0.125-1.844-0.083-2.708,0.063c-0.896-0.146-1.792-0.188-2.708-0.063
				c-5.865,0.583-10.125,5.833-9.531,11.688c1.042,10.167,1.573,20.563,1.573,30.875c0,5.896,4.771,10.667,10.667,10.667
				c5.896,0,10.667-4.771,10.667-10.667c0-10.313,0.531-20.708,1.573-30.875C236.829,400.602,232.569,395.352,226.704,394.769z"/>
			<path d="M99.538,166.227c-4.438-3.854-11.177-3.375-15.042,1.083c-3.854,4.458-3.375,11.188,1.083,15.042
				c17.115,14.833,32.854,30.604,46.76,46.896c2.115,2.458,5.104,3.729,8.115,3.729c2.458,0,4.917-0.833,6.927-2.563
				c4.479-3.813,5.01-10.563,1.188-15.042C133.954,198.29,117.465,181.748,99.538,166.227z"/>
			<path d="M218.152,335.686c-7.271-21.708-17.042-43.104-29.052-63.625c-2.99-5.083-9.531-6.771-14.594-3.813
				c-5.083,2.979-6.792,9.521-3.823,14.604c11.271,19.229,20.438,39.292,27.24,59.625c1.49,4.458,5.656,7.271,10.115,7.271
				c1.125,0,2.26-0.167,3.385-0.563C217.006,347.331,220.027,341.29,218.152,335.686z"/>
			<path d="M43.944,124.54c-17.01-10.958-28.042-16.521-28.51-16.75c-5.281-2.625-11.677-0.521-14.302,4.771
				c-2.635,5.25-0.51,11.667,4.75,14.313c0.104,0.042,10.563,5.313,26.5,15.583c1.792,1.167,3.792,1.708,5.771,1.708
				c3.5,0,6.938-1.729,8.979-4.896C50.319,134.331,48.892,127.727,43.944,124.54z"/>
			<path d="M458.663,63.998c-29.406,0-53.333,23.917-53.333,53.333c0,2.079,0.382,4.053,0.615,6.072
				c-6.402,4.074-13.452,8.717-21.448,14.449c-4.781,3.438-5.885,10.104-2.448,14.875c2.083,2.917,5.354,4.458,8.677,4.458
				c2.156,0,4.323-0.646,6.208-2c5.766-4.139,11.027-7.682,15.964-10.91c9.289,15.715,26.227,26.389,45.766,26.389
				c29.406,0,53.333-23.917,53.333-53.333C511.996,87.915,488.069,63.998,458.663,63.998z M458.663,149.331
				c-17.646,0-32-14.354-32-32c0-17.646,14.354-32,32-32c17.646,0,32,14.354,32,32C490.663,134.977,476.309,149.331,458.663,149.331
				z"/>
		</g>
	</g>
</g>
<g>
</g>
<g>
</g>
<g>
</g>
<g>
</g>
<g>
</g>
<g>
</g>
<g>
</g>
<g>
</g>
<g>
</g>
<g>
</g>
<g>
</g>
<g>
</g>
<g>
</g>
<g>
</g>
<g>
</g>
</svg>
