<svg id="Capa_1" enable-background="new 0 0 512 512" height="512" viewBox="0 0 512 512" width="512" xmlns="http://www.w3.org/2000/svg"><g>
<path d="m472 150c-22.056 0-40 17.944-40 40 0 6.361 1.52 12.562 4.361 18.134l-35.446 31.584-9.544-66.811c14.547-6.094 24.629-20.544 24.629-36.907 0-22.056-17.944-40-40-40s-40 17.944-40 40c0 8.794 2.852 17.148 8.005 23.991l-40.614 50.766-25.124-71.531c10.888-7.309 17.733-19.693 17.733-33.226 0-22.056-17.944-40-40-40s-40 17.944-40 40c0 13.533 6.845 25.917 17.734 33.225l-25.124 71.531-40.614-50.766c5.153-6.842 8.004-15.196 8.004-23.99 0-22.056-17.944-40-40-40s-40 17.944-40 40c0 16.364 10.082 30.814 24.629 36.907l-9.544 66.812-35.446-31.584c2.841-5.573 4.361-11.775 4.361-18.135 0-22.056-17.944-40-40-40s-40 17.944-40 40c0 20.968 16.221 38.208 36.772 39.858l27.401 137.928c-16.3 5.056-28.173 20.274-28.173 38.214 0 22.056 17.944 40 40 40h135c5.522 0 10-4.478 10-10s-4.478-10-10-10h-135c-11.028 0-20-8.972-20-20 0-11.02 8.958-19.985 19.974-19.999.005 0 .01.001.015.001.013 0 .027-.002.04-.002h89.971c5.522 0 10-4.478 10-10s-4.478-10-10-10h-81.791l-27.724-139.558c2.065-.934 4.046-2.042 5.921-3.311 8.003 7.131 56.022 49.915 63.146 56.263 29.242 25.753 75.334 13.722 88.243-23.049l38.807-110.49c1.127.095 2.26.144 3.398.144s2.271-.048 3.398-.144l38.806 110.487c12.929 36.828 59.034 48.777 88.289 23.012 27.036-24.089 7.159-6.191 63.103-56.225 1.876 1.271 3.857 2.379 5.919 3.314l-27.724 139.557h-81.791c-5.522 0-10 4.478-10 10s4.478 10 10 10h89.971c.013 0 .027.002.04.002.005 0 .01-.001.015-.001 11.016.014 19.974 8.979 19.974 19.999 0 11.028-8.972 20-20 20h-135c-5.522 0-10 4.478-10 10s4.478 10 10 10h135c22.056 0 40-17.944 40-40 0-17.94-11.873-33.158-28.173-38.214l27.401-137.928c20.551-1.65 36.772-18.89 36.772-39.858 0-22.056-17.944-40-40-40zm-96-34c11.028 0 20 8.972 20 20 0 10.983-9.016 20-20 20-10.912 0-20-8.846-20-20 0-11.028 8.972-20 20-20zm-120-30c11.028 0 20 8.972 20 20 0 10.917-8.825 19.995-20 19.995-11.18 0-20-9.082-20-19.995 0-11.028 8.972-20 20-20zm-120 30c11.028 0 20 8.972 20 20 0 11.102-9.031 20-20 20-11.092 0-20-9.086-20-20 0-11.028 8.972-20 20-20zm-116 74c0-11.028 8.972-20 20-20s20 8.972 20 20c0 10.894-8.845 20-20 20-11.028 0-20-8.972-20-20zm118.813 74.425-9.806-8.738 11.419-79.943c4.135-.464 8.174-1.564 11.952-3.259l48.417 60.519-5.87 16.714c-8.231 23.445-37.506 31.088-56.112 14.707zm178.261-14.71-5.869-16.711 48.418-60.52c3.779 1.696 7.817 2.796 11.951 3.26l11.419 79.943-9.761 8.698c-18.542 16.329-47.877 8.918-56.158-14.67zm154.926-39.715c-11.066 0-20-9.022-20-20 0-11.028 8.972-20 20-20s20 8.972 20 20-8.972 20-20 20z"/><path d="m296 331c0-30.841-17.57-55-40-55s-40 24.159-40 55 17.57 55 40 55 40-24.159 40-55zm-40 35c-9.46 0-20-14.374-20-35s10.54-35 20-35 20 14.374 20 35-10.54 35-20 35z"/>
<circle cx="256" cy="436" r="10"/></g></svg>